<svg width="198" height="58" viewBox="0 0 198 58" fill="none" xmlns="http://www.w3.org/2000/svg">
<g clip-path="url(#clip0_22111_7612)">
<path d="M35.3004 7.27917C41.208 20.1365 47.1632 32.9939 53.1185 45.9458C53.309 45.7568 53.452 45.6149 53.5949 45.4731C55.3576 42.826 56.644 40.0371 57.5015 36.9646C58.2638 34.2702 58.6449 31.5286 58.5496 28.7869C58.4067 22.4528 56.4058 16.6859 52.5468 11.628C50.2599 8.60272 47.4491 6.14469 44.2094 4.20663C41.6844 2.694 38.9688 1.51225 36.015 0.897747C35.5386 0.803208 35.0622 0.708668 34.5857 0.614129C34.2522 0.519589 34.0617 0.661398 33.9187 0.945017C32.6801 3.35577 31.4414 5.76653 30.2027 8.22456C28.0588 12.4316 25.9149 16.5913 23.8186 20.7983C22.1988 23.9654 20.579 27.1797 18.9592 30.3468C17.0535 34.0811 15.1478 37.8627 13.1945 41.597C11.8129 44.3387 10.4313 47.0803 9.002 49.822C8.76379 50.2947 8.81143 50.5783 9.24021 50.9092C10.0978 51.5709 10.9553 52.28 11.7652 52.9418C12.0511 53.1781 12.194 53.1308 12.3846 52.7999C13.7662 50.0583 15.1002 47.3167 16.4818 44.575C18.3875 40.7462 20.3408 36.87 22.2465 33.0412C24.1521 29.1651 26.1055 25.3362 28.0111 21.4601C30.0597 17.3949 32.1084 13.3297 34.1093 9.21723C34.4428 8.55545 34.7287 7.94094 35.0622 7.27917C35.2051 7.27917 35.2527 7.27917 35.3004 7.27917Z" fill="#262626"/>
<path d="M5.43095 46.088C5.81209 45.379 6.14558 44.7172 6.52672 44.0082C9.09939 38.903 11.6721 33.7979 14.2447 28.74C16.4839 24.2967 18.6754 19.8533 20.9146 15.41C23.1538 10.9193 25.4406 6.42871 27.6798 1.89082C27.918 1.46539 28.1562 0.992691 28.3467 0.567263C28.5373 0.141835 28.442 -0.0472436 27.9656 0.0472959C26.2029 0.283645 24.3925 0.425454 22.6297 0.803612C18.0084 1.79628 13.9589 3.87615 10.3381 6.85414C6.71729 9.83214 4.00169 13.5192 2.14366 17.8207C1.04789 20.3733 0.333263 23.0204 -0.000230551 25.762C-0.286082 28.551 -0.286082 31.2926 0.190337 34.0815C0.809683 37.7686 2.09602 41.172 4.00169 44.3391C4.28755 44.859 4.62104 45.3317 4.95453 45.8044C5.04982 45.9462 5.09746 46.088 5.1451 46.2299C5.28803 46.1826 5.38331 46.1353 5.43095 46.088Z" fill="#262626"/>
<path d="M48.1699 49.4914C46.7883 46.5134 45.4067 43.4882 44.0251 40.4629H24.5395C23.3961 42.7318 22.205 45.0008 21.1093 47.317C19.8706 49.8223 18.7272 52.3749 17.5361 54.9274C17.2026 55.6365 17.2979 55.731 18.0126 55.9674C19.5371 56.4401 21.014 57.0073 22.5862 57.3382C25.4447 58 28.3509 58.1891 31.3047 57.8582C32.6386 57.7164 33.9726 57.6218 35.2589 57.2909C37.1646 56.771 39.0703 56.1092 40.9283 55.3056C43.5486 54.1711 45.8355 52.5167 47.9317 50.6732C48.2652 50.2477 48.4081 50.0114 48.1699 49.4914Z" fill="#C2C2C4"/>
<path d="M41.6386 35.2161C40.5905 32.8527 39.4947 30.5364 38.4466 28.173C37.3509 25.8095 36.3027 23.4932 35.207 21.1298C35.1117 20.8934 34.9688 20.6571 34.7782 20.3262C34.3018 21.2243 33.9206 21.9806 33.5395 22.7369C33.1584 23.4932 32.7772 24.2968 32.3485 25.0531C30.6333 28.4566 28.9182 31.86 27.2031 35.2161H41.6386Z" fill="#CA0100"/>
<path d="M79.7537 14.7949C80.7065 14.7949 81.2782 15.0785 81.85 16.1657L87.9005 27.0851C88.0434 27.3214 87.9958 27.5105 87.6623 27.5105H85.3278C85.0896 27.5105 84.9943 27.4632 84.899 27.2741L83.6127 24.9107H74.9895L73.7032 27.2741C73.6079 27.4632 73.5126 27.5105 73.2744 27.5105H70.8923C70.5588 27.5105 70.5112 27.3214 70.6541 27.0851L76.657 16.1657C77.2763 15.0785 77.8004 14.7949 78.5627 14.7949H79.7537ZM76.1806 22.8308H82.4693L79.5631 17.4893C79.5155 17.3948 79.4679 17.3475 79.3726 17.3475H79.2773C79.182 17.3475 79.1344 17.3948 79.0867 17.4893L76.1806 22.8308Z" fill="#262626"/>
<path d="M100.57 14.7953C103.095 14.7953 104.048 15.788 104.048 17.7733V18.6242C104.048 19.6641 103.667 20.4204 102.857 20.9404C103.714 21.4131 104.143 22.2167 104.143 23.3039V24.3438C104.143 26.2819 103.333 27.5109 100.904 27.5109H89.9936C89.6124 27.5109 89.4219 27.3218 89.4219 26.9436V15.3153C89.4219 14.9371 89.6124 14.748 89.9936 14.748H100.57V14.7953ZM92.2804 20.0895H99.8078C100.999 20.0895 101.38 19.7114 101.38 19.0023V18.3878C101.38 17.6315 100.999 17.3006 100.046 17.3006H92.5662C92.4233 17.3006 92.328 17.3952 92.328 17.537L92.2804 20.0895ZM92.2804 22.0749V24.7692C92.2804 24.911 92.3757 25.0056 92.5186 25.0056H100.046C100.999 25.0056 101.38 24.6747 101.38 23.9184V23.2093C101.38 22.453 100.999 22.0749 99.8078 22.0749H92.2804Z" fill="#262626"/>
<path d="M119.536 14.7953C119.822 14.7953 119.917 14.9371 119.917 15.1735V16.9697C119.917 17.2533 119.774 17.3952 119.536 17.3952H111.389C109.483 17.3952 108.959 17.9624 108.959 19.8532V22.453C108.959 24.3911 109.531 24.9583 111.389 24.9583H119.536C119.822 24.9583 119.917 25.1001 119.917 25.3365V27.1327C119.917 27.4163 119.774 27.5109 119.536 27.5109H111.294C107.578 27.5109 106.148 26.1873 106.148 22.6894V19.5696C106.148 16.0716 107.578 14.748 111.294 14.748L119.536 14.7953Z" fill="#262626"/>
<path d="M136.207 14.7949C137.16 14.7949 137.731 15.0785 138.303 16.1657L144.354 27.0851C144.497 27.3214 144.449 27.5105 144.115 27.5105H141.781C141.543 27.5105 141.447 27.4632 141.352 27.2741L140.066 24.9107H131.443L130.156 27.2741C130.061 27.4632 129.966 27.5105 129.728 27.5105H127.345C127.012 27.5105 126.964 27.3214 127.107 27.0851L133.205 16.213C133.825 15.1258 134.349 14.8422 135.111 14.8422H136.207V14.7949ZM132.634 22.8308H138.922L136.016 17.4893C135.969 17.3948 135.921 17.3475 135.826 17.3475H135.73C135.635 17.3475 135.588 17.3948 135.54 17.4893L132.634 22.8308Z" fill="#262626"/>
<path d="M147.548 14.7949C147.834 14.7949 147.929 14.9367 147.929 15.1731V22.4526C147.929 24.3907 148.501 24.9579 150.359 24.9579H155.456C157.362 24.9579 157.886 24.3907 157.886 22.4526V15.1731C157.886 14.8895 158.029 14.7949 158.267 14.7949H160.268C160.554 14.7949 160.649 14.9367 160.649 15.1731V22.689C160.649 26.1869 159.22 27.5105 155.504 27.5105H150.216C146.5 27.5105 145.07 26.1869 145.07 22.689V15.1731C145.07 14.8895 145.213 14.7949 145.499 14.7949H147.548Z" fill="#262626"/>
<path d="M177.042 14.7949C177.328 14.7949 177.47 14.9367 177.47 15.1731V16.9693C177.47 17.253 177.328 17.3948 177.042 17.3948H171.277V27.1323C171.277 27.416 171.134 27.5105 170.896 27.5105H168.895C168.609 27.5105 168.514 27.3687 168.514 27.1323V17.3948H162.749C162.463 17.3948 162.32 17.253 162.32 16.9693V15.1731C162.32 14.8895 162.463 14.7949 162.749 14.7949H177.042Z" fill="#262626"/>
<path d="M189.377 14.7949C193.093 14.7949 194.523 16.1185 194.523 19.6164V22.7362C194.523 26.2342 193.093 27.5578 189.377 27.5578H183.708C179.992 27.5578 178.562 26.2342 178.562 22.7362V19.6164C178.562 16.1185 179.992 14.7949 183.708 14.7949H189.377ZM181.373 22.5472C181.373 24.438 181.945 25.0052 183.803 25.0052H189.234C191.14 25.0052 191.664 24.438 191.664 22.5472V19.8055C191.664 17.9147 191.092 17.3475 189.234 17.3475H183.803C181.897 17.3475 181.373 17.9147 181.373 19.8055V22.5472Z" fill="#262626"/>
<path d="M76.1829 35.8779C77.9456 35.8779 78.565 36.4924 78.565 38.1469V39.6122C78.565 41.2667 77.898 41.8812 76.1829 41.8812H73.5149C71.7998 41.8812 71.1328 41.2667 71.1328 39.6122V38.1469C71.1328 36.4924 71.7998 35.8779 73.5149 35.8779H76.1829ZM72.4668 39.5177C72.4668 40.4158 72.705 40.6522 73.6102 40.6522H76.1352C77.0404 40.6522 77.2786 40.3686 77.2786 39.5177V38.2414C77.2786 37.3433 77.0404 37.1069 76.1352 37.1069H73.6102C72.705 37.1069 72.4668 37.3906 72.4668 38.2414V39.5177Z" fill="#737373"/>
<path d="M83.755 35.4521C83.8979 35.4521 83.9456 35.4994 83.9456 35.6412V37.1539H85.0413C86.5659 37.1539 87.0899 37.6266 87.0899 38.9028V40.1319C87.0899 41.3609 86.6135 41.8336 85.0413 41.8336H83.9456V43.5353C83.9456 43.6771 83.8979 43.7244 83.755 43.7244H82.8974C82.7545 43.7244 82.7069 43.6771 82.7069 43.5353V41.8336H81.6111C80.0866 41.8336 79.5625 41.3609 79.5625 40.1319V38.9028C79.5625 37.6738 80.0389 37.1539 81.6111 37.1539H82.7069V35.6412C82.7069 35.4994 82.7545 35.4521 82.8974 35.4521H83.755ZM80.8012 39.9428C80.8012 40.6518 80.9918 40.8882 81.754 40.8882H82.7545V38.1938H81.754C81.0394 38.1938 80.8012 38.4301 80.8012 39.1392V39.9428ZM83.9456 38.1938V40.8882H84.946C85.7083 40.8882 85.8989 40.6518 85.8989 39.9428V39.1392C85.8989 38.4301 85.7083 38.1938 84.946 38.1938H83.9456Z" fill="#737373"/>
<path d="M89.095 37.2012C89.2379 37.2012 89.2856 37.2484 89.2856 37.3903V40.6519C89.2856 40.6991 89.3332 40.7464 89.3332 40.7464H89.4285C89.4761 40.7464 89.5238 40.7464 89.5238 40.6991L92.0964 37.7211C92.3823 37.343 92.5729 37.2012 93.1446 37.2012H93.621C94.145 37.2012 94.3833 37.3903 94.3833 38.0993V41.6918C94.3833 41.8336 94.3356 41.8809 94.1927 41.8809H93.3351C93.1922 41.8809 93.1446 41.8336 93.1446 41.6918V38.4302C93.1446 38.3829 93.1446 38.3356 93.0969 38.3356H93.0016C92.954 38.3356 92.9064 38.3356 92.9064 38.3829L90.3337 41.3609C90.0002 41.7391 89.8573 41.8809 89.2856 41.8809H88.8091C88.2851 41.8809 88.0469 41.6918 88.0469 40.9828V37.3903C88.0469 37.2484 88.0945 37.2012 88.2374 37.2012H89.095Z" fill="#737373"/>
<path d="M96.5239 37.2012C96.6668 37.2012 96.7145 37.2484 96.7145 37.3903V40.6991C96.7145 40.8409 96.7621 40.8882 96.9051 40.8882H100.621V37.4375C100.621 37.2957 100.669 37.2484 100.812 37.2484H101.669C101.812 37.2484 101.86 37.2957 101.86 37.4375V40.8882H103.003C103.146 40.8882 103.194 40.9355 103.194 41.0773V43.299C103.194 43.4408 103.146 43.4881 103.003 43.4881H102.336C102.193 43.4881 102.146 43.4408 102.146 43.299V41.8809H96.3334C95.7616 41.8809 95.5234 41.6445 95.5234 41.1718V37.4375C95.5234 37.2957 95.5711 37.2484 95.714 37.2484L96.5239 37.2012Z" fill="#737373"/>
<path d="M104.961 37.2012C105.104 37.2012 105.152 37.2484 105.152 37.3903V40.6519C105.152 40.6991 105.2 40.7464 105.2 40.7464H105.295C105.343 40.7464 105.39 40.7464 105.39 40.6991L107.963 37.7211C108.249 37.343 108.439 37.2012 109.011 37.2012H109.487C110.011 37.2012 110.25 37.3903 110.25 38.0993V41.6918C110.25 41.8336 110.202 41.8809 110.059 41.8809H109.202C109.059 41.8809 109.011 41.8336 109.011 41.6918V38.4302C109.011 38.3829 109.011 38.3356 108.963 38.3356H108.916C108.868 38.3356 108.82 38.3356 108.82 38.3829L106.248 41.3609C105.914 41.7391 105.771 41.8809 105.2 41.8809H104.723C104.199 41.8809 103.961 41.6918 103.961 40.9828V37.3903C103.961 37.2484 104.009 37.2012 104.152 37.2012H104.961Z" fill="#737373"/>
<path d="M115.15 37.2012C116.675 37.2012 117.199 37.6739 117.199 38.9502V41.2191C117.199 41.7863 117.056 41.8809 116.58 41.8809H112.482C111.482 41.8809 111.148 41.5027 111.148 40.6519V40.2264C111.148 39.5174 111.434 39.092 112.482 39.092H115.96V38.9502C115.96 38.3829 115.77 38.1938 115.007 38.1938H111.434C111.339 38.1938 111.291 38.1466 111.291 38.052V37.343C111.291 37.2484 111.339 37.2012 111.434 37.2012H115.15ZM115.96 40.6046V39.8483H112.816C112.482 39.8483 112.339 39.9901 112.339 40.2737V40.4628C112.339 40.7464 112.482 40.8882 112.816 40.8882H115.722C115.913 40.9355 115.96 40.8409 115.96 40.6046Z" fill="#737373"/>
<path d="M123.348 37.2016C123.872 37.2016 124.062 37.4379 124.062 37.8633V41.6449C124.062 41.7867 124.015 41.834 123.872 41.834H123.014C122.871 41.834 122.823 41.7867 122.823 41.6449V38.3833C122.823 38.2888 122.776 38.2415 122.681 38.2415H120.823C120.632 38.2415 120.632 38.336 120.584 38.4306C120.489 38.9033 120.346 40.2741 120.013 41.0304C119.774 41.5504 119.489 41.834 118.774 41.834H117.964C117.869 41.834 117.773 41.7867 117.773 41.6449V41.0304C117.773 40.8886 117.821 40.8413 117.964 40.8413H118.583C118.822 40.8413 119.012 40.7941 119.203 40.3214C119.393 39.8487 119.536 38.9978 119.679 37.7215C119.727 37.3906 119.87 37.1543 120.394 37.1543H123.348V37.2016Z" fill="#737373"/>
<path d="M126.157 37.2012C126.3 37.2012 126.348 37.2484 126.348 37.3903V38.6193H129.588C130.779 38.6193 131.255 39.092 131.255 39.9428V40.5101C131.255 41.4082 130.779 41.8336 129.588 41.8336H125.348C125.205 41.8336 125.109 41.7391 125.109 41.5973V37.3903C125.109 37.2484 125.157 37.2012 125.3 37.2012H126.157ZM126.348 39.5174V40.7937C126.348 40.8409 126.396 40.8882 126.443 40.8882H129.349C129.874 40.8882 130.064 40.6991 130.064 40.3682V40.0374C130.064 39.6592 129.874 39.5174 129.349 39.5174H126.348Z" fill="#737373"/>
<path d="M133.259 37.2012C133.402 37.2012 133.45 37.2484 133.45 37.3903V38.9974H137.356V37.3903C137.356 37.2484 137.404 37.2012 137.547 37.2012H138.404C138.547 37.2012 138.595 37.2484 138.595 37.3903V41.6918C138.595 41.8336 138.547 41.8809 138.404 41.8809H137.547C137.404 41.8809 137.356 41.8336 137.356 41.6918V39.9901H133.45V41.6918C133.45 41.8336 133.402 41.8809 133.259 41.8809H132.402C132.259 41.8809 132.211 41.8336 132.211 41.6918V37.3903C132.211 37.2484 132.259 37.2012 132.402 37.2012H133.259Z" fill="#737373"/>
<path d="M140.689 37.2012C140.832 37.2012 140.879 37.2484 140.879 37.3903V38.6193H144.119C145.31 38.6193 145.786 39.092 145.786 39.9428V40.5101C145.786 41.4082 145.31 41.8336 144.119 41.8336H139.879C139.736 41.8336 139.641 41.7391 139.641 41.5973V37.3903C139.641 37.2484 139.688 37.2012 139.831 37.2012H140.689ZM140.879 39.5174V40.7937C140.879 40.8409 140.927 40.8882 140.975 40.8882H143.881C144.405 40.8882 144.595 40.6991 144.595 40.3682V40.0374C144.595 39.6592 144.405 39.5174 143.881 39.5174H140.879ZM147.502 37.2012C147.644 37.2012 147.692 37.2484 147.692 37.3903V41.6918C147.692 41.8336 147.644 41.8809 147.502 41.8809H146.644C146.501 41.8809 146.453 41.8336 146.453 41.6918V37.3903C146.453 37.2484 146.501 37.2012 146.644 37.2012H147.502Z" fill="#737373"/>
<path d="M149.79 37.2014C149.933 37.2014 149.981 37.2486 149.981 37.3904V40.6521C149.981 40.6993 150.029 40.7466 150.029 40.7466H150.124C150.171 40.7466 150.219 40.7466 150.219 40.6993L152.792 37.7213C153.078 37.3432 153.268 37.2014 153.84 37.2014H154.316C154.84 37.2014 155.079 37.3904 155.079 38.0995V41.692C155.079 41.8338 155.031 41.8811 154.888 41.8811H154.03C153.887 41.8811 153.84 41.8338 153.84 41.692V38.4304C153.84 38.3831 153.84 38.3358 153.792 38.3358H153.697C153.649 38.3358 153.602 38.3358 153.602 38.3831L151.029 41.3611C150.695 41.7393 150.553 41.8811 149.981 41.8811H149.504C148.98 41.8811 148.742 41.692 148.742 40.9829V37.3904C148.742 37.2486 148.79 37.2014 148.933 37.2014H149.79ZM149.886 35.2633C149.886 35.1688 149.933 35.0742 150.029 35.0742C150.076 35.0742 150.171 35.1215 150.267 35.1688C150.457 35.3106 151.077 35.8305 151.934 35.8305C152.792 35.8305 153.411 35.3106 153.602 35.1688C153.697 35.1215 153.745 35.0742 153.792 35.0742C153.887 35.0742 153.935 35.1688 153.935 35.2633V35.6887C153.935 35.8305 153.935 35.9251 153.792 36.0196C153.506 36.256 152.696 36.6341 151.887 36.6341C151.077 36.6341 150.314 36.3032 149.981 36.0196C149.838 35.8778 149.79 35.7833 149.79 35.6887V35.2633H149.886Z" fill="#737373"/>
<path d="M164.467 37.2016C164.991 37.2016 165.182 37.4379 165.182 37.8633V40.8413H166.325C166.468 40.8413 166.516 40.8886 166.516 41.0304V43.2521C166.516 43.3939 166.468 43.4412 166.325 43.4412H165.61C165.468 43.4412 165.42 43.3939 165.42 43.2521V41.834H159.798V43.2521C159.798 43.3939 159.75 43.4412 159.608 43.4412H158.941C158.798 43.4412 158.75 43.3939 158.75 43.2521V41.0304C158.75 40.8886 158.798 40.8413 158.941 40.8413H159.655C159.893 40.8413 160.084 40.7941 160.275 40.3214C160.465 39.8487 160.608 38.9978 160.751 37.7215C160.799 37.3906 160.942 37.1543 161.466 37.1543H164.467V37.2016ZM163.943 40.8413V38.3833C163.943 38.2888 163.895 38.2415 163.8 38.2415H161.942C161.751 38.2415 161.751 38.336 161.704 38.4306C161.656 38.9033 161.466 40.0378 161.227 40.8413H163.943Z" fill="#737373"/>
<path d="M168.275 37.2012C168.418 37.2012 168.465 37.2484 168.465 37.3903V40.6519C168.465 40.6991 168.513 40.7464 168.513 40.7464H168.608C168.656 40.7464 168.703 40.7464 168.703 40.6991L171.276 37.7211C171.562 37.343 171.753 37.2012 172.324 37.2012H172.801C173.325 37.2012 173.563 37.3903 173.563 38.0993V41.6918C173.563 41.8336 173.515 41.8809 173.372 41.8809H172.515C172.372 41.8809 172.324 41.8336 172.324 41.6918V38.4302C172.324 38.3829 172.324 38.3356 172.277 38.3356H172.181C172.134 38.3356 172.086 38.3356 172.086 38.3829L169.513 41.3609C169.18 41.7391 169.037 41.8809 168.465 41.8809H167.989C167.465 41.8809 167.227 41.6918 167.227 40.9828V37.3903C167.227 37.2484 167.274 37.2012 167.417 37.2012H168.275Z" fill="#737373"/>
<path d="M179.855 37.2016C180.379 37.2016 180.57 37.4379 180.57 37.8633V41.6449C180.57 41.7867 180.522 41.834 180.379 41.834H179.522C179.379 41.834 179.331 41.7867 179.331 41.6449V38.3833C179.331 38.2888 179.284 38.2415 179.188 38.2415H177.33C177.14 38.2415 177.14 38.336 177.092 38.4306C176.997 38.9033 176.854 40.2741 176.52 41.0304C176.282 41.5504 175.996 41.834 175.282 41.834H174.472C174.377 41.834 174.281 41.7867 174.281 41.6449V41.0304C174.281 40.8886 174.329 40.8413 174.472 40.8413H175.091C175.329 40.8413 175.52 40.7941 175.711 40.3214C175.901 39.8487 176.044 38.9978 176.187 37.7215C176.235 37.3906 176.378 37.1543 176.902 37.1543H179.855V37.2016Z" fill="#737373"/>
<path d="M186.042 37.2016C187.233 37.2016 187.519 37.5797 187.519 38.6197V39.4232C187.519 39.8014 187.376 39.8959 187.043 39.8959H182.707V40.085C182.707 40.605 182.898 40.8413 183.66 40.8413H187.233C187.329 40.8413 187.376 40.8886 187.376 40.9831V41.6922C187.376 41.7867 187.329 41.834 187.233 41.834H183.517C181.993 41.834 181.469 41.3613 181.469 40.1323V38.9033C181.469 37.6743 181.945 37.1543 183.517 37.1543L186.042 37.2016ZM182.707 39.0924H186.185C186.281 39.0924 186.328 39.0451 186.328 38.9505V38.5724C186.328 38.2415 186.185 38.0997 185.804 38.0997H183.66C182.898 38.0997 182.707 38.336 182.707 38.856V39.0924Z" fill="#737373"/>
<path d="M192.861 37.2016C194.386 37.2016 194.91 37.6743 194.91 38.9505V40.1796C194.91 41.4086 194.433 41.8813 192.861 41.8813H189.622V43.583C189.622 43.7248 189.574 43.7721 189.431 43.7721H188.573C188.43 43.7721 188.383 43.7248 188.383 43.583V38.9033C188.383 37.6743 188.859 37.1543 190.431 37.1543L192.861 37.2016ZM189.622 40.8413H192.718C193.481 40.8413 193.671 40.605 193.671 39.8959V39.1396C193.671 38.4306 193.481 38.1942 192.718 38.1942H190.574C189.86 38.1942 189.622 38.4306 189.622 39.1396V40.8413Z" fill="#737373"/>
</g>
<defs>
<clipPath id="clip0_22111_7612">
<rect width="198" height="58" fill="white"/>
</clipPath>
</defs>
</svg>
