<svg width="64" height="64" viewBox="0 0 64 64" fill="none" xmlns="http://www.w3.org/2000/svg">
<g filter="url(#filter0_d_23708_21033)">
<rect x="56" y="56" width="48" height="48" rx="6" transform="rotate(-180 56 56)" fill="#CA0100"/>
</g>
<g clip-path="url(#clip0_23708_21033)">
<path d="M35.1725 31.5941L30.0127 36.7537C29.6844 37.0821 29.1523 37.0821 28.8242 36.7537C28.4961 36.4256 28.4961 35.8935 28.8242 35.5654L33.3898 30.9999L28.8243 26.4346C28.4962 26.1063 28.4962 25.5743 28.8243 25.2462C29.1524 24.9179 29.6846 24.9179 30.0128 25.2462L35.1726 30.4059C35.3367 30.57 35.4186 30.7849 35.4186 30.9999C35.4186 31.215 35.3365 31.43 35.1725 31.5941Z" fill="white"/>
</g>
<defs>
<filter id="filter0_d_23708_21033" x="0" y="0" width="64" height="64" filterUnits="userSpaceOnUse" color-interpolation-filters="sRGB">
<feFlood flood-opacity="0" result="BackgroundImageFix"/>
<feColorMatrix in="SourceAlpha" type="matrix" values="0 0 0 0 0 0 0 0 0 0 0 0 0 0 0 0 0 0 127 0" result="hardAlpha"/>
<feOffset/>
<feGaussianBlur stdDeviation="4"/>
<feColorMatrix type="matrix" values="0 0 0 0 0.7125 0 0 0 0 0.7125 0 0 0 0 0.7125 0 0 0 0.25 0"/>
<feBlend mode="normal" in2="BackgroundImageFix" result="effect1_dropShadow_23708_21033"/>
<feBlend mode="normal" in="SourceGraphic" in2="effect1_dropShadow_23708_21033" result="shape"/>
</filter>
<clipPath id="clip0_23708_21033">
<rect width="12" height="12" fill="white" transform="translate(26 25)"/>
</clipPath>
</defs>
</svg>
