<svg width="168" height="49" viewBox="0 0 168 49" fill="none" xmlns="http://www.w3.org/2000/svg">
<path d="M16.3551 -0.0078125C19.7206 -0.0078125 20.778 2.38427 21.6566 4.77635C22.0289 5.7952 30.7703 29.5241 31.0384 30.2328C31.1128 30.4248 31.0682 30.7496 30.7554 30.8678C30.4427 30.9859 25.9007 32.743 25.6476 32.8316C25.3944 32.9202 25.1115 32.7873 25.0221 32.5363C24.9328 32.2853 23.0415 27.1172 22.833 26.5413C22.2076 26.5413 10.5026 26.5413 9.87718 26.5413C9.66869 27.1172 7.76254 32.3001 7.67319 32.5363C7.58384 32.7726 7.31579 32.935 7.04774 32.8316C6.77969 32.7283 2.22281 30.9711 1.95475 30.8678C1.6867 30.7644 1.56757 30.4691 1.67181 30.2328C1.99943 29.3469 10.6069 5.98716 11.0387 4.77635C11.8876 2.4138 12.9896 -0.0078125 16.3551 -0.0078125ZM0.971897 42.4738C0.703845 42.4738 0.480469 42.6953 0.480469 42.9611V48.4983C0.480469 48.7788 0.703845 49.0003 0.971897 49.0003H31.7234C31.9915 49.0003 32.2148 48.7788 32.2148 48.4983V42.9611C32.2148 42.6805 31.9915 42.459 31.7234 42.459H0.971897V42.4738ZM16.3253 7.7443L11.9471 20.7826H20.778L16.3849 7.7443H16.3253ZM130.754 26.881C130.754 28.3575 129.935 29.3321 128.416 29.3321C127.82 29.3321 127.329 29.3321 126.539 29.1254V24.6513C126.882 24.5922 127.597 24.4889 128.416 24.5184C129.95 24.5775 130.754 25.2862 130.754 26.881ZM133.866 26.6595C133.866 23.9278 132.243 22.0377 128.848 22.0377C128.014 22.0377 127.433 22.1116 126.524 22.333V18.3905C127.09 18.3167 128.043 18.2429 129.101 18.2429C130.098 18.2429 131.364 18.3019 132.481 18.4348L132.556 16.1461C131.29 15.8656 129.458 15.6884 128.043 15.6884C126.644 15.6884 124.469 16.0428 123.427 16.3085V30.8678C125.035 31.4584 126.614 31.7242 128.237 31.7242C131.945 31.7389 133.866 29.7898 133.866 26.6595ZM98.5428 25.8621C98.5428 27.8998 97.7237 29.1992 96.3835 29.1992C95.8176 29.1992 95.5197 29.1697 94.8794 28.963V22.8794C95.5793 22.5545 95.9516 22.5545 96.5175 22.5545C97.8726 22.5545 98.5428 23.6472 98.5428 25.8621ZM88.3121 25.9359C88.3121 23.721 88.9823 22.5545 90.3225 22.5545C90.8884 22.5545 91.2607 22.5545 91.9606 22.8794V28.9777C91.3203 29.1844 91.0224 29.214 90.4565 29.214C88.9376 29.214 88.3121 27.9736 88.3121 25.9359ZM94.8794 35.076V31.104C95.2517 31.3255 95.9963 31.6504 97.2323 31.6504C99.7192 31.6504 101.536 29.6127 101.536 25.8769C101.536 21.8605 99.7192 20.1329 96.7409 20.1329C95.9814 20.1329 95.49 20.2068 94.8794 20.5021V15.7622H91.9606V20.5021C91.3501 20.2068 90.8437 20.1329 90.0991 20.1329C87.1208 20.1329 85.304 21.9196 85.304 25.9507C85.304 29.6865 86.9421 31.6651 89.6077 31.6651C90.8586 31.6651 91.6032 31.3403 91.9755 31.1188V35.0908H94.8794V35.076ZM72.7353 31.4584V20.8122C71.127 20.3396 69.891 20.1329 68.2827 20.1329C66.6744 20.1329 65.4682 20.3396 63.8598 20.8122V26.2608C63.8598 27.7374 63.8301 28.1804 63.6662 28.6676C63.5024 29.0811 63.294 29.5979 62.6983 29.9818L63.5024 31.6799C65.8553 31.0154 66.734 30.0113 66.734 26.7924V22.7908C67.5083 22.6727 67.6721 22.6579 68.2827 22.6579C68.9081 22.6579 69.0422 22.6874 69.8166 22.7908V31.4732H72.7353V31.4584ZM108.788 29.1254C108.148 29.3469 107.716 29.3912 107.21 29.3912C106.167 29.3912 105.572 28.9777 105.572 27.9146C105.572 26.8071 106.316 26.438 107.776 26.438C108.118 26.438 108.476 26.497 108.639 26.5413V27.3387C108.639 28.1951 108.684 28.7562 108.788 29.1254ZM112.511 30.3952C111.737 29.2287 111.543 28.5495 111.543 27.0729V24.105C111.543 22.4955 111.35 21.9048 110.918 21.3142C110.322 20.4873 109.339 20.1329 107.508 20.1329C106.227 20.1329 104.946 20.2658 103.74 20.5759L104.172 22.7022C104.991 22.5841 105.855 22.4955 106.465 22.4955C108.401 22.4955 108.625 22.776 108.625 24.2083V24.7547C108.193 24.6365 107.701 24.5627 107.15 24.5627C104.217 24.5627 102.683 25.9802 102.683 28.3132C102.683 30.5134 104.336 31.7094 106.346 31.7094C107.091 31.7094 107.88 31.5765 108.49 31.3255C108.863 31.1631 109.027 31.0745 109.503 30.7496C109.801 31.1778 110.382 31.6061 110.62 31.6799L112.511 30.3952ZM141.074 29.1254C140.433 29.3469 140.001 29.3912 139.495 29.3912C138.453 29.3912 137.857 28.9777 137.857 27.9146C137.857 26.8071 138.602 26.438 140.061 26.438C140.418 26.438 140.761 26.497 140.925 26.5413V27.3387C140.925 28.1951 140.969 28.7562 141.074 29.1254ZM144.797 30.3952C144.022 29.2287 143.814 28.5495 143.814 27.0729V24.105C143.814 22.4955 143.635 21.9048 143.203 21.3142C142.608 20.4873 141.625 20.1329 139.793 20.1329C138.497 20.1329 137.246 20.2658 136.025 20.5759L136.457 22.7022C137.276 22.5841 138.14 22.4955 138.751 22.4955C140.686 22.4955 140.91 22.776 140.91 24.2083V24.7547C140.478 24.6365 140.001 24.5627 139.436 24.5627C136.517 24.5627 134.968 25.9802 134.968 28.3132C134.968 30.5134 136.621 31.7094 138.631 31.7094C139.376 31.7094 140.165 31.5765 140.776 31.3255C141.148 31.1631 141.312 31.0745 141.788 30.7496C142.086 31.1778 142.667 31.6061 142.905 31.6799L144.797 30.3952ZM81.0449 27.634C81.0449 28.7267 80.6578 29.465 79.2579 29.465C78.7814 29.465 78.5878 29.465 77.9772 29.2878V26.0984C78.7367 25.9507 78.8112 25.9212 79.2579 25.9212C80.5982 25.9359 81.0449 26.5856 81.0449 27.634ZM75.0436 20.3101L75.0287 30.8678C76.4136 31.4436 77.9475 31.7094 79.3026 31.7094C82.415 31.7094 84.0829 30.1147 84.0829 27.4864C84.0829 25.109 82.6086 23.6324 79.8536 23.6324C79.1537 23.6324 78.7367 23.721 77.9772 23.913V20.2953H75.0436V20.3101ZM155.504 31.4584V20.4135H152.57V24.5922H149.249V20.4135H146.33V31.4584H149.249V26.9548H152.57V31.4584H155.504ZM167.521 31.4584C167.521 31.4584 165.928 28.077 165.526 27.3092C165.094 26.438 164.677 25.8473 163.784 25.6258V25.5816C164.394 25.4634 164.871 25.109 165.392 24.0016C165.898 22.9237 166.047 22.6874 166.33 22.4364C166.613 22.1854 167.015 22.274 167.015 22.274L167.164 20.2658C166.747 20.2068 166.285 20.2068 165.794 20.2363C165.005 20.2806 164.588 20.5021 164.201 20.9007C163.903 21.1961 163.694 21.639 163.426 22.1706C163.143 22.7317 162.935 23.1747 162.652 23.7506C162.369 24.3264 162.235 24.5922 161.475 24.5922H160.984V20.4135H158.05V31.4584H160.984V26.94H161.386C162.22 26.94 162.369 27.1467 162.816 28.0179C163.337 29.0663 164.32 31.4584 164.32 31.4584H167.521ZM58.4095 31.4584H61.775L56.682 16.0132C56.1459 15.836 55.4758 15.7179 54.7759 15.7179C54.0015 15.7179 53.7334 15.8213 53.1229 16.0132L47.7172 31.4584H50.9487C50.9487 31.4584 51.3805 30.0999 51.9166 28.4314H57.5011C58.0074 30.0999 58.4095 31.4584 58.4095 31.4584ZM52.7357 25.8326C52.7357 25.8326 53.6739 22.7317 53.8079 22.2592C54.1802 21.0041 54.7461 19.0255 54.7461 19.0255H54.8354C54.8354 19.0255 55.3566 21.0779 55.6992 22.2444C55.8332 22.7022 56.7267 25.8473 56.7267 25.8473H52.7357V25.8326ZM117.485 24.0754C116.458 24.0754 115.624 24.9023 115.624 25.9212C115.624 26.9548 116.458 27.7817 117.485 27.7817C118.513 27.7817 119.347 26.9548 119.347 25.9212C119.347 24.9171 118.513 24.0754 117.485 24.0754Z" fill="#E52713"/>
</svg>
